<?xml version="1.0" encoding="UTF-8"?>
<!-- Generator: visioncortex VTracer 0.6.4 -->
<svg version="1.1" xmlns="http://www.w3.org/2000/svg" width="180" height="180">
<path d="M0 0 C7.26 0 14.52 0 22 0 C23.05 4.19 22.73 7.22 22.07 11.38 C21.97 12.1 21.86 12.82 21.75 13.56 C21.52 15.1 21.29 16.64 21.05 18.17 C20.44 22.17 19.86 26.18 19.28 30.18 C19.16 30.96 19.05 31.74 18.93 32.55 C16.53 49.01 15.53 65.37 15 82 C20.33 81.47 24.03 79.64 28.56 77 C29.6 76.41 29.6 76.41 30.66 75.8 C36.52 72.41 42.05 68.63 47.52 64.65 C50 63 50 63 52 63 C52 62.34 52 61.68 52 61 C54.34 59.31 54.34 59.31 57.38 57.44 C58.37 56.82 59.37 56.2 60.4 55.56 C61.9 54.66 63.43 53.78 65 53 C64.57 57.02 63.49 60.5 62.06 64.25 C58.26 74.47 55.55 85.86 60.1 96.26 C63.31 102.48 67.93 104.95 74 108 C61.27 122.62 35.26 131.52 16.42 133.35 C8.1 133.57 0.95 132.55 -5.75 127.38 C-15.51 118.04 -16.94 104.51 -17.35 91.61 C-17.63 63.21 -12.75 25.51 0 0 Z " fill="#E5E4E9" transform="translate(67,22)"/>
<path d="M0 0 C1.37 3.69 0.6 5.71 -0.94 9.25 C-1.32 10.14 -1.7 11.03 -2.09 11.95 C-2.39 12.63 -2.69 13.3 -3 14 C-3.66 13.01 -4.32 12.02 -5 11 C-6.95 10.1 -6.95 10.1 -9 10 C-9.66 10.66 -10.32 11.32 -11 12 C-13.12 11.62 -13.12 11.62 -15 11 C-14.01 10.67 -13.02 10.34 -12 10 C-12 9.34 -12 8.68 -12 8 C-10.24 6.74 -8.41 5.57 -6.56 4.44 C-3.1 2.46 -3.1 2.46 0 0 Z " fill="#B4B3B7" transform="translate(131,75)"/>
<path d="M0 0 C3.3 1.65 6.6 3.3 10 5 C7.25 7.96 4.58 10.12 1 12 C0.34 12 -0.32 12 -1 12 C-1.33 9.69 -1.66 7.38 -2 5 C-1.34 5 -0.68 5 0 5 C0 3.35 0 1.7 0 0 Z " fill="#AAAAAD" transform="translate(131,125)"/>
<path d="M0 0 C0.33 0 0.66 0 1 0 C1 7.92 1 15.84 1 24 C4.96 23.5 4.96 23.5 9 23 C8.67 23.66 8.34 24.32 8 25 C5.93 25.63 5.93 25.63 3.44 26.12 C2.61 26.29 1.78 26.46 0.93 26.63 C0.3 26.75 -0.34 26.88 -1 27 C-1.09 17.93 -1.15 9.02 0 0 Z " fill="#616163" transform="translate(81,80)"/>
<path d="M0 0 C7.26 0 14.52 0 22 0 C23 4 22.81 6.06 22 10 C21.67 10 21.34 10 21 10 C21 7.36 21 4.72 21 2 C14.07 1.67 7.14 1.34 0 1 C0 0.67 0 0.34 0 0 Z " fill="#49494C" transform="translate(67,22)"/>
<path d="M0 0 C-4.2 4.85 -8.86 5.92 -15 7 C-13.55 4.1 -11.44 3.37 -8.62 1.81 C-7.65 1.26 -6.67 0.71 -5.66 0.14 C-3 -1 -3 -1 0 0 Z " fill="#7F7F83" transform="translate(105,96)"/>
<path d="M0 0 C1.12 3.3 0.9 5.05 -0.44 8.25 C-0.72 8.96 -1.01 9.66 -1.31 10.39 C-1.54 10.92 -1.76 11.45 -2 12 C-2.93 8.99 -3.04 8.13 -2 5 C-3.98 5.66 -5.96 6.32 -8 7 C-5.42 4.35 -3.08 2.06 0 0 Z " fill="#6A6A6B" transform="translate(131,75)"/>
<path d="M0 0 C0.9 0.53 0.9 0.53 1.81 1.06 C0.53 1.76 -0.77 2.44 -2.06 3.12 C-3.14 3.7 -3.14 3.7 -4.24 4.29 C-5.21 4.67 -5.21 4.67 -6.19 5.06 C-6.85 4.73 -7.51 4.4 -8.19 4.06 C-4.21 -1.81 -4.21 -1.81 0 0 Z " fill="#9A999F" transform="translate(121.1875,140.9375)"/>
<path d="M0 0 C2.4 2.88 4.47 5.56 6 9 C3.53 8.01 3.53 8.01 1 7 C0.67 4.69 0.34 2.38 0 0 Z " fill="#6E6E6F" transform="translate(125,116)"/>
<path d="M0 0 C0.66 0.33 1.32 0.66 2 1 C-0.25 3.56 -0.25 3.56 -3 6 C-4.32 5.67 -5.64 5.34 -7 5 C-4.69 3.35 -2.38 1.7 0 0 Z " fill="#7C7C7D" transform="translate(114,87)"/>
</svg>
